<mxfile host="Electron" modified="2024-04-26T02:38:03.982Z" agent="Mozilla/5.0 (X11; Linux x86_64) AppleWebKit/537.36 (KHTML, like Gecko) draw.io/24.2.5 Chrome/120.0.6099.109 Electron/28.1.0 Safari/537.36" etag="zBRxQHEHr7lMRE5FyA-Z" version="24.2.5" type="device">
  <diagram name="Page-1" id="y7UxyQXD9JRaXJqpYdBh">
    <mxGraphModel dx="1434" dy="835" grid="1" gridSize="10" guides="1" tooltips="1" connect="1" arrows="1" fold="1" page="1" pageScale="1" pageWidth="850" pageHeight="1100" math="0" shadow="0">
      <root>
        <mxCell id="0" />
        <mxCell id="1" parent="0" />
        <mxCell id="N_t2hYpUkx0jc7seM2L8-1" value="i32::MIN / 10" style="rounded=0;whiteSpace=wrap;html=1;strokeColor=#d79b00;strokeWidth=1;fontFamily=Ubuntu;fontSize=16;fillColor=#ffe6cc;" vertex="1" parent="1">
          <mxGeometry x="240" y="240" width="120" height="40" as="geometry" />
        </mxCell>
        <mxCell id="N_t2hYpUkx0jc7seM2L8-2" value="i32::MAX / 10" style="rounded=0;whiteSpace=wrap;html=1;strokeColor=#6c8ebf;strokeWidth=1;fontFamily=Ubuntu;fontSize=16;fillColor=#dae8fc;" vertex="1" parent="1">
          <mxGeometry x="240" y="40" width="120" height="40" as="geometry" />
        </mxCell>
        <mxCell id="N_t2hYpUkx0jc7seM2L8-5" style="edgeStyle=orthogonalEdgeStyle;rounded=1;orthogonalLoop=1;jettySize=auto;html=1;entryX=0.5;entryY=1;entryDx=0;entryDy=0;strokeColor=#6c8ebf;fontFamily=Ubuntu;fontSize=14;fillColor=#dae8fc;" edge="1" parent="1" source="N_t2hYpUkx0jc7seM2L8-3" target="N_t2hYpUkx0jc7seM2L8-2">
          <mxGeometry relative="1" as="geometry" />
        </mxCell>
        <mxCell id="N_t2hYpUkx0jc7seM2L8-6" style="edgeStyle=orthogonalEdgeStyle;rounded=1;orthogonalLoop=1;jettySize=auto;html=1;entryX=0.5;entryY=0;entryDx=0;entryDy=0;strokeColor=#6c8ebf;fontFamily=Ubuntu;fontSize=14;fillColor=#dae8fc;" edge="1" parent="1" source="N_t2hYpUkx0jc7seM2L8-3" target="N_t2hYpUkx0jc7seM2L8-1">
          <mxGeometry relative="1" as="geometry" />
        </mxCell>
        <mxCell id="N_t2hYpUkx0jc7seM2L8-3" value="number" style="text;html=1;align=center;verticalAlign=middle;whiteSpace=wrap;rounded=0;fontFamily=Ubuntu;fontSize=16;" vertex="1" parent="1">
          <mxGeometry x="270" y="150" width="60" height="30" as="geometry" />
        </mxCell>
      </root>
    </mxGraphModel>
  </diagram>
</mxfile>
